<svg width="35" height="35" viewBox="0 0 35 35" fill="none" xmlns="http://www.w3.org/2000/svg">
<path d="M27.2137 5.88848C27.2184 6.86876 28.1702 7.77901 29.1823 7.77175C30.2116 7.76397 31.1239 6.84645 31.1088 5.83454C31.0938 4.8553 30.1331 3.93778 29.1324 3.94608C28.1499 3.95438 27.209 4.90717 27.2137 5.88848ZM27.1929 17.5304C27.1466 12.1374 22.87 7.82155 17.4709 7.83659C12.0787 7.85163 7.81343 12.113 7.79992 17.5019C7.7864 22.8369 12.0828 27.1667 17.4907 27.1641C22.8741 27.1615 27.1316 22.8592 27.1929 17.5304ZM34.9868 17.4817C34.9868 20.117 34.9946 22.7524 34.9847 25.3872C34.9691 29.5277 32.4838 32.8119 28.755 34.3611C27.7486 34.7792 26.5733 34.9462 25.4723 34.9591C20.2547 35.0198 15.036 34.9991 9.81792 34.984C6.27316 34.9737 3.49724 33.4498 1.54733 30.5287C0.534173 29.0121 -0.0147728 27.3166 0.000302439 25.4333C0.0418893 20.2576 0.00497947 15.0808 0.0174555 9.9045C0.0273324 5.74637 1.92525 2.763 5.67847 0.953903C6.9162 0.356918 8.19447 -0.00614548 9.59231 8.01086e-05C14.8733 0.0234184 20.1549 -0.0118523 25.4359 0.0177116C28.4384 0.0348282 30.9207 1.32475 32.7983 3.5799C34.2299 5.29928 35.043 7.34282 34.9983 9.67007C34.9489 12.2732 34.9868 14.8775 34.9868 17.4817Z" fill="#231F20"/>
<path d="M17.5104 23.5614C14.5034 23.7719 11.4409 20.6169 11.4285 17.5502C11.4156 14.413 14.4242 11.4157 17.499 11.4286C20.7371 11.4415 23.5486 14.3618 23.5712 17.4877C23.5938 20.6422 20.6638 23.731 17.5104 23.5614Z" fill="#231F20"/>
</svg>
