<svg width="30" height="30" viewBox="0 0 30 30" fill="none" xmlns="http://www.w3.org/2000/svg">
<path d="M14.9868 30C13.2727 28.3068 11.577 26.6607 9.91098 24.9792C7.42299 22.4686 4.92176 19.9676 2.8636 17.0069C1.53601 15.0973 0.44578 13.0565 0.120596 10.6392C-0.383819 6.88684 0.679944 3.76385 3.57933 1.62138C6.49475 -0.532433 9.59703 -0.465261 12.6428 1.37756C13.496 1.89399 14.229 2.64639 15.0594 3.32507C16.3445 1.8495 17.9187 0.792221 19.8116 0.297167C25.596 -1.21635 30.8791 4.18389 29.8771 10.5594C29.3783 13.7343 27.8799 16.3404 25.9039 18.5754C23.0843 21.7651 20.0939 24.776 17.1661 27.8514C16.472 28.5803 15.737 29.2629 14.9868 30Z" fill="#231F20"/>
</svg>
