<svg width="30" height="30" viewBox="0 0 30 30" fill="none" xmlns="http://www.w3.org/2000/svg">
<path d="M20.7991 10.8758C20.8183 7.63838 18.2246 5.01735 14.9926 5.00756C11.839 4.99821 9.186 7.63526 9.16237 10.8033C9.13875 13.9802 11.744 16.6208 14.9203 16.6391C18.2161 16.6578 20.7799 14.1444 20.7991 10.8758ZM26.6213 26.6024C26.7158 25.3131 26.2713 24.3143 25.2812 23.555C21.454 20.6202 17.1391 19.5035 12.3788 20.2085C9.53283 20.6305 6.97706 21.7894 4.70972 23.5626C3.73743 24.3237 3.27513 25.3188 3.35849 26.6024H26.6213ZM29.9986 15.0283C29.9986 18.8239 30.0027 22.6195 29.9969 26.4146C29.9937 28.6066 28.6073 29.9957 26.4157 29.997C18.8144 30.001 11.2126 30.001 3.61126 29.997C1.40099 29.9957 0.0123159 28.6444 0.00874954 26.4413C-0.00328708 18.8235 -0.00239523 11.2056 0.00830398 3.58778C0.0114246 1.34863 1.40188 0.00272942 3.66788 0.00184059C11.2157 -0.000829697 18.7631 -0.000385284 26.3105 0.00184059C28.643 0.002285 29.9964 1.36954 29.9978 3.72308C30.0004 7.4915 29.9986 11.2599 29.9986 15.0283Z" fill="#231F20"/>
</svg>
