<svg width="30" height="25" viewBox="0 0 30 25" fill="none" xmlns="http://www.w3.org/2000/svg">
<g clip-path="url(#clip0_143_169)">
<path d="M21.7964 17.0781C21.7964 16.2081 21.8059 15.3382 21.7935 14.4685C21.7829 13.7549 21.1689 13.1611 20.4685 13.1601C19.7332 13.159 19.1305 13.7096 19.1243 14.445C19.1093 16.206 19.1093 17.9671 19.1239 19.7278C19.1301 20.4695 19.747 21.0394 20.4762 21.032C21.1838 21.025 21.7844 20.4245 21.7938 19.6877C21.8055 18.8181 21.7968 17.9481 21.7964 17.0781ZM8.18625 17.0465C8.18625 17.8947 8.18115 18.7433 8.1877 19.5914C8.19353 20.3722 8.83161 21.0345 9.56183 21.032C10.3124 21.0296 10.9192 20.3887 10.9225 19.5697C10.9294 17.9154 10.9294 16.2616 10.9225 14.6073C10.9192 13.776 10.3372 13.1636 9.57239 13.1601C8.78936 13.1565 8.19207 13.7858 8.18698 14.6291C8.18188 15.4348 8.18588 16.2408 8.18625 17.0465ZM16.3662 17.044C16.3662 16.2155 16.3702 15.3874 16.3647 14.5592C16.3596 13.796 15.7685 13.1706 15.0551 13.1601C14.2735 13.1488 13.6507 13.7342 13.6438 14.5385C13.6296 16.2377 13.6303 17.9369 13.6441 19.6357C13.6503 20.4035 14.2797 21.0275 15.0015 21.032C15.7441 21.037 16.36 20.3915 16.3647 19.5925C16.3698 18.7429 16.3658 17.8933 16.3662 17.044ZM23.8035 9.15484C23.2521 7.9595 22.7269 6.8397 22.2185 5.71252C21.8437 4.88189 21.438 4.05829 21.1518 3.19885C21.0126 2.78249 20.8167 2.64615 20.4201 2.64615C16.809 2.64686 13.1984 2.64194 9.58769 2.65845C9.38155 2.65951 9.07672 2.78108 8.98894 2.93638C8.68374 3.47573 8.44738 4.05197 8.1979 4.61942C7.90763 5.27929 7.63448 5.94583 7.34749 6.60709C6.98257 7.44826 6.61181 8.28697 6.23086 9.15484H23.8035ZM14.9706 24.9884C12.1083 24.9884 9.24607 24.9596 6.38455 24.9997C4.76423 25.0221 3.59041 23.928 3.40066 22.4547C3.34239 22.0046 3.15774 21.5693 3.03246 21.1269C2.57757 19.5222 2.13907 17.9126 1.66379 16.3132C1.26718 14.978 0.823949 13.6558 0.409853 12.3256C0.279834 11.9067 0.177858 11.4795 0.0634994 11.0561C-0.212564 10.034 0.436804 9.20649 1.5203 9.20017C1.6525 9.19912 1.78434 9.19982 1.91655 9.19947C3.34021 9.19912 3.29796 9.18436 3.79582 7.87131C4.14254 6.95565 4.64076 6.0948 5.04211 5.19707C5.32218 4.57058 5.49335 3.89385 5.81895 3.29267C6.33101 2.34609 6.45338 1.15707 7.50847 0.537611C7.91055 0.301493 8.38583 0.0386715 8.83015 0.0344563C12.9467 -0.00384331 17.064 0.0267258 21.1809 2.28882e-05C22.0346 -0.00559998 23.2506 1.05447 23.5154 1.71469C23.9794 2.87138 24.4816 4.01437 24.9788 5.15806C25.2738 5.83655 25.5954 6.5045 25.8962 7.18052C26.1555 7.76414 26.3791 8.36427 26.6723 8.93102C26.7455 9.07227 27.0212 9.1696 27.2139 9.18752C27.6283 9.22582 28.0537 9.23741 28.4667 9.19279C29.7083 9.05857 30.2509 10.3333 29.8904 11.3224C29.6555 11.9672 29.505 12.6397 29.2989 13.2946C28.9933 14.2626 28.6721 15.2261 28.3575 16.1916C28.3509 16.2117 28.3345 16.2289 28.329 16.2489C27.9674 17.5946 27.6196 18.9435 27.2412 20.2847C26.924 21.4084 26.681 22.5686 26.201 23.6265C25.8037 24.5011 24.9256 24.9765 23.8869 24.9807C20.915 24.9933 17.9428 24.9853 14.9706 24.9853V24.9884Z" fill="#231F20"/>
</g>
<defs>
<clipPath id="clip0_143_169">
<rect width="30" height="25" fill="white"/>
</clipPath>
</defs>
</svg>
