<svg width="90" height="90" viewBox="0 0 90 90" fill="none" xmlns="http://www.w3.org/2000/svg">
<path d="M55.7376 70.14C46.8429 52.2587 38.0628 34.6078 29.1958 16.7818C28.5342 17.2198 27.89 17.4667 27.5074 17.9297C25.5764 20.2665 23.2144 22.4154 21.9145 25.0752C16.7074 35.7283 18.2266 46.14 24.1276 56.0215C29.2127 64.5373 36.6737 69.7236 46.6991 70.8214C49.6805 71.1478 52.6403 70.9399 55.7376 70.14ZM73.5108 41.1601C73.8553 41.6889 74.2569 42.1897 74.5355 42.7514C76.8355 47.388 79.0769 52.0537 81.4182 56.6691C82.1093 58.031 81.8006 58.747 80.4983 59.4394C74.0603 62.8621 67.6715 66.3767 61.2358 69.8031C58.4737 71.2736 58.7815 70.9513 59.963 73.3623C60.1173 73.6777 60.4161 74.0821 60.3247 74.3224C60.1654 74.7414 59.8066 75.2742 59.4339 75.3668C59.0902 75.4519 58.4583 75.1321 58.2285 74.8005C56.4417 72.2197 56.4624 72.2054 53.6199 73.1745C39.7468 77.9043 25.3667 73.4607 17.2054 61.9224C6.87801 47.3219 10.7799 26.6528 25.7243 16.792C28.3577 15.0548 28.3551 15.0557 27.054 12.1292C26.913 11.8124 26.821 11.4737 26.6809 11.0713C27.9256 10.3993 28.7558 10.6299 29.381 11.903C30.4433 14.0656 30.1996 14.2569 32.7645 12.93C39.1501 9.62645 45.6423 6.59897 52.6784 4.91095C55.1685 4.31343 55.1636 4.29392 56.2859 6.54859C58.5136 11.0242 60.7443 15.4983 62.9665 19.9767C63.1692 20.3853 63.3186 20.8203 63.205 21.4895C62.9272 21.221 62.6013 20.9874 62.3782 20.6794C58.5594 15.4065 53.4554 12.2958 46.9964 11.3357C42.9259 10.7306 39.2404 11.5346 35.6472 13.5432C31.3962 15.9193 31.3248 15.7956 33.4795 20.1247C41.3153 35.8677 49.1726 51.6004 56.9563 67.3691C57.7067 68.8897 58.4301 69.2379 59.8896 68.3818C61.8136 67.2532 63.8986 66.3814 65.7536 65.1557C73.2982 60.1721 76.1689 52.0424 73.5981 43.2948C73.4057 42.6399 73.2516 41.974 73.0798 41.3133C73.2234 41.262 73.3669 41.2111 73.5108 41.1601Z" fill="#132200"/>
<path d="M69.2844 7.35423C44.0528 -6.17453 21.6406 4.20834 11.1962 20.069C-0.663822 38.0798 2.76259 61.9294 18.9382 75.707C34.7925 89.2108 58.8951 88.9088 74.1743 75.1298C91.5375 59.4716 93.5352 33.0076 76.8943 13.5867C88.6697 23.9015 96.7157 48.3824 82.1663 69.8443C66.0912 93.5564 36.761 94.9933 18.3918 81.199C-3.02458 65.1162 -6.16068 35.3338 11.215 15.2772C26.2908 -2.1246 53.0007 -4.51008 69.2844 7.35423Z" fill="#4C7362"/>
<path d="M69.2844 7.35423C44.0528 -6.17453 21.6406 4.20834 11.1962 20.069C-0.663822 38.0798 2.76259 61.9294 18.9382 75.707C34.7925 89.2108 58.8951 88.9088 74.1743 75.1298C91.5375 59.4716 93.5352 33.0076 76.8943 13.5867C88.6697 23.9015 96.7157 48.3824 82.1663 69.8443C66.0912 93.5564 36.761 94.9933 18.3918 81.199C-3.02458 65.1162 -6.16068 35.3338 11.215 15.2772C26.2908 -2.1246 53.0007 -4.51008 69.2844 7.35423Z" fill="#4C7362"/>
<path d="M57.329 35.6345C59.4844 41.0786 56.3539 50.971 51.3539 54.8223C48.3272 50.9192 51.9482 39.1892 57.329 35.6345Z" fill="#4C7362"/>
<path d="M43.5636 39.2894C40.8839 35.9256 41.7621 29.0587 45.8416 21.4721C49.0845 25.5966 47.2186 36.6062 43.5636 39.2894Z" fill="#4C7362"/>
<path d="M49.4889 29.6954C52.932 36.3426 52.1602 43.4775 47.544 47.9695C45.9247 44.8723 45.7666 41.7742 46.7695 38.5523C47.6962 35.5759 48.6004 32.5924 49.4889 29.6954Z" fill="#4C7362"/>
<path d="M29.2388 48.7727C35.8115 47.1885 46.0693 51.2713 48.4266 56.3132C44.5943 58.9629 33.3541 54.6017 29.2388 48.7727Z" fill="#4C7362"/>
<path d="M40.6599 40.4932C34.7092 41.5564 27.0729 37.3892 25.127 32.1148C29.7536 31.0963 38.992 36.0288 40.6599 40.4932Z" fill="#4C7362"/>
<path d="M44.7716 49.1575C39.3527 50.3213 31.6529 45.7666 28.7817 39.9022C28.8462 39.6979 28.9106 39.4936 28.9751 39.2893C29.3154 39.5698 29.6153 39.9722 30.0026 40.1106C32.0155 40.831 34.0256 41.5859 36.084 42.1383C39.9173 43.1663 42.8733 45.2779 44.7716 49.1575Z" fill="#4C7362"/>
</svg>
