<svg width="24" height="24" viewBox="0 0 24 24" fill="none" xmlns="http://www.w3.org/2000/svg">
<path d="M8.35443 14.6078C11.7001 14.6094 14.3663 11.829 14.3397 8.50753C14.3135 5.16199 11.7172 2.50347 8.39014 2.49681C4.98112 2.49015 2.47628 5.20294 2.40336 8.47067C2.32843 11.8024 5.09578 14.6038 8.35443 14.6078ZM24 22.0807C23.304 22.7078 22.6563 23.3488 21.9412 23.8986C21.7541 24.0424 21.2337 24.0322 21.0753 23.8745C18.9466 21.7576 16.8345 19.6228 14.7777 17.4343C14.4795 17.1174 14.5021 16.4944 14.3573 16.0193C14.2718 15.7387 14.2165 15.3619 14.0189 15.2329C13.871 15.1362 13.4773 15.3066 13.2615 15.4592C8.70393 18.6752 3.31156 16.7104 1.10242 12.7326C-1.39237 8.23979 0.526619 2.70415 5.05152 0.729071C9.49245 -1.20966 14.305 0.843235 16.1365 5.40362C17.2494 8.17324 16.8481 10.8251 15.2886 13.3311C15.1111 13.6162 15.0528 13.9787 14.9391 14.3053C15.258 14.4072 15.5833 14.6089 15.8946 14.5889C16.5297 14.5485 16.9617 14.785 17.3982 15.238C19.3946 17.3083 21.4248 19.3449 23.4398 21.3967C23.5851 21.5447 23.7048 21.7182 24 22.0807Z" fill="#231F20"/>
</svg>
