<svg width="35" height="35" viewBox="0 0 35 35" fill="none" xmlns="http://www.w3.org/2000/svg">
<path d="M26.5409 30.7839C26.7441 29.6192 26.9182 28.6616 27.0764 27.7008C27.2716 26.5139 27.4261 25.3171 27.6494 24.1369C27.861 23.021 28.1751 21.9285 28.3778 20.8105C28.6086 19.5354 28.7392 18.2385 28.962 16.9613C29.3637 14.6616 29.7939 12.3681 30.2269 10.0751C30.454 8.87264 30.7381 7.68311 30.9455 6.47645C31.055 5.83992 31.056 5.18057 31.1164 4.38945C22.1878 8.54893 13.4746 12.6083 4.64573 16.7211C4.85451 16.8845 4.92941 16.9675 5.02023 17.0106C6.36047 17.6424 7.69042 18.3059 9.05126 18.8786C9.6219 19.1183 10.4098 19.4866 10.8418 19.2413C13.1998 17.9023 15.4856 16.4057 17.7813 14.9339C20.2905 13.3247 22.7814 11.6797 25.2868 10.0632C25.5358 9.9024 25.8322 9.83133 26.106 9.71824C26.1678 9.80539 26.2296 9.89254 26.2914 9.9797C26.1514 10.2375 26.0508 10.5379 25.8654 10.7464C23.1231 13.83 20.3378 16.8679 17.6371 19.9961C16.8165 20.9465 15.7192 21.7085 15.495 23.2041C15.3555 24.1364 15.0596 25.039 14.8443 25.9578C14.7189 26.4931 14.6145 27.0342 14.4459 27.8321C15.1725 27.1784 15.6977 26.7146 16.214 26.2395C17.0721 25.4494 17.9227 24.6505 18.7798 23.8593C19.1614 23.5071 19.5237 23.5299 19.8879 23.919C20.687 24.7739 21.4917 25.6226 22.3058 26.4599C23.675 27.8684 25.0537 29.2665 26.5409 30.7839ZM19.0785 28.6704C17.7673 29.9512 16.5918 31.3623 15.1921 32.4029C13.2391 33.8555 11.6924 32.9119 10.9266 30.6122C10.4809 29.2737 10.0732 27.9187 9.6645 26.5652C9.33775 25.4841 9.04517 24.3906 8.71233 23.3126C8.65054 23.1128 8.50121 22.8773 8.3369 22.7964C7.35383 22.3129 6.35204 21.8771 5.36196 21.4102C4.00627 20.7711 2.62389 20.188 1.31314 19.4503C0.269689 18.8631 -0.101066 17.7472 0.0229869 16.4871C0.128315 15.4159 0.537456 14.5231 1.50648 14.066C3.22543 13.2552 4.94486 12.4444 6.65352 11.6076C8.17024 10.8652 9.65748 10.0471 11.1864 9.33798C12.7569 8.60963 14.3767 8.01149 15.9477 7.28521C17.4888 6.57398 18.9853 5.74551 20.5203 5.01923C22.0497 4.29503 23.6114 3.65695 25.1431 2.93949C26.7019 2.20958 28.2233 1.37903 29.7962 0.691666C30.5827 0.347721 31.4384 0.156818 32.2792 0.0172691C33.5904 -0.200096 35.1418 1.682 34.9896 2.98929C34.8122 4.51966 34.5487 6.03861 34.2903 7.55549C34.125 8.52714 33.868 9.48012 33.7116 10.4533C33.3788 12.5263 33.1312 14.617 32.7609 16.6811C32.4131 18.6198 31.9398 20.5304 31.548 22.4597C31.3827 23.2731 31.2816 24.1032 31.1566 24.927C30.9666 26.1777 30.8828 27.4612 30.5701 28.6725C30.1286 30.3813 30.2812 32.2919 29.0252 33.7434C27.6485 35.334 25.7956 35.4388 24.3248 33.9193C22.6971 32.2385 21.0713 30.5551 19.4408 28.8779C19.3613 28.7959 19.2419 28.7617 19.0785 28.6704Z" fill="#231F20"/>
</svg>
