<svg width="35" height="35" viewBox="0 0 35 35" fill="none" xmlns="http://www.w3.org/2000/svg">
<path d="M19.348 24.2583C19.5566 23.4931 19.7357 22.7964 19.9371 22.107C20.1628 21.3324 20.767 21.1602 21.4111 21.708C21.888 22.1142 22.4288 22.5012 22.761 23.0138C24.1696 25.1885 27.4856 25.0225 29.6805 24.2739C29.8803 24.2054 30.104 23.6747 30.0303 23.4547C29.8933 23.0475 29.5788 22.6802 29.2777 22.3513C28.3721 21.3625 27.4399 20.3986 26.513 19.4296C25.9275 18.8174 25.9804 18.1166 26.3806 17.4925C27.4768 15.7842 28.6549 14.1288 29.7625 12.4272C30.3993 11.4488 30.2135 11.0805 29.0816 11.0519C27.7653 11.0192 26.445 11.025 25.1308 11.0955C24.8142 11.1126 24.3938 11.3788 24.2288 11.6542C23.5582 12.7753 23.0101 13.97 22.3354 15.0885C21.7858 15.9995 21.2263 16.9493 19.8898 17.423C19.744 16.5758 19.541 15.835 19.5042 15.0859C19.444 13.8668 19.5265 12.6409 19.4668 11.4223C19.4539 11.1635 19.1393 10.805 18.8777 10.6919C17.0949 9.92049 15.3298 10.156 13.3046 10.943C14.6852 11.7123 14.7313 12.9771 14.9556 14.1454C15.1772 15.2991 14.531 17.0494 13.8096 17.4266C12.3719 16.11 11.5218 14.4099 10.7033 12.6772C10.4448 12.1305 10.1007 11.3274 9.65539 11.2195C8.11496 10.8455 6.51899 10.9103 4.83168 11.2423C4.95365 11.6309 5.00918 11.924 5.13426 12.1834C5.52508 12.9911 5.91901 13.7993 6.3555 14.5832C7.1117 15.9419 7.85753 17.3099 8.69158 18.6208C9.29156 19.5639 10.0171 20.4287 10.7054 21.3143C11.842 22.7772 13.3684 23.7935 15.1092 24.1966C16.4446 24.5058 17.9093 24.2583 19.348 24.2583ZM0.016789 17.5169C0.016789 12.9667 0.0520812 8.41605 0.000179811 3.86642C-0.0216188 1.91013 1.94233 -0.00517654 3.84555 1.14441e-05C12.9475 0.0254326 22.05 0.00986862 31.1524 0.0119438C33.2041 0.0124626 34.977 1.77214 34.9817 3.7746C35.0051 12.9377 35.0087 22.1007 34.977 31.2638C34.9703 33.2647 33.2404 34.9839 31.1955 34.986C22.0619 34.9964 12.9283 34.9787 3.79469 35C1.92935 35.0041 -0.0174658 33.1215 0.0022567 31.1673C0.0484489 26.6177 0.016789 22.067 0.016789 17.5169Z" fill="#231F20"/>
</svg>
